<svg width="28" height="29" viewBox="0 0 28 29" fill="none" xmlns="http://www.w3.org/2000/svg">
<path d="M20.175 2.79175C19.8333 3.13346 19.8333 3.68343 19.8333 4.78338V19.95C19.8333 21.05 19.8333 21.6 20.175 21.9417C20.5168 22.2834 21.0667 22.2834 22.1667 22.2834C23.2666 22.2834 23.8166 22.2834 24.1583 21.9417C24.5 21.6 24.5 21.05 24.5 19.95V4.78338C24.5 3.68343 24.5 3.13346 24.1583 2.79175C23.8166 2.45004 23.2666 2.45004 22.1667 2.45004C21.0667 2.45004 20.5168 2.45004 20.175 2.79175Z" fill="#EDC531"/>
<path d="M11.6667 8.28338C11.6667 7.18343 11.6667 6.63346 12.0084 6.29175C12.3501 5.95004 12.9001 5.95004 14 5.95004C15.0999 5.95004 15.6499 5.95004 15.9916 6.29175C16.3333 6.63346 16.3333 7.18343 16.3333 8.28338V19.95C16.3333 21.05 16.3333 21.6 15.9916 21.9417C15.6499 22.2834 15.0999 22.2834 14 22.2834C12.9001 22.2834 12.3501 22.2834 12.0084 21.9417C11.6667 21.6 11.6667 21.05 11.6667 19.95V8.28338Z" fill="#EDC531"/>
<path d="M3.84171 10.9584C3.5 11.3001 3.5 11.8501 3.5 12.95V19.95C3.5 21.05 3.5 21.6 3.84171 21.9417C4.18342 22.2834 4.73339 22.2834 5.83333 22.2834C6.93328 22.2834 7.48325 22.2834 7.82496 21.9417C8.16667 21.6 8.16667 21.05 8.16667 19.95V12.95C8.16667 11.8501 8.16667 11.3001 7.82496 10.9584C7.48325 10.6167 6.93328 10.6167 5.83333 10.6167C4.73339 10.6167 4.18342 10.6167 3.84171 10.9584Z" fill="#EDC531"/>
<path d="M3.5 24.9084C3.01675 24.9084 2.625 25.3001 2.625 25.7834C2.625 26.2666 3.01675 26.6584 3.5 26.6584H24.5C24.9832 26.6584 25.375 26.2666 25.375 25.7834C25.375 25.3001 24.9832 24.9084 24.5 24.9084H3.5Z" fill="#EDC531"/>
</svg>
