<svg width="28" height="29" viewBox="0 0 28 29" fill="none" xmlns="http://www.w3.org/2000/svg">
<path d="M2.33398 18.9509V5.94748C2.33398 4.66628 3.368 3.62549 4.64679 3.70408C5.78589 3.77409 7.13305 3.91247 8.16732 4.18539C9.39139 4.5084 10.8461 5.19639 11.9966 5.80474C12.3548 5.99417 12.7358 6.12556 13.1257 6.19963L13.1257 23.908C12.7722 23.8301 12.4274 23.7044 12.1018 23.5308C10.9357 22.9093 9.42901 22.1886 8.16732 21.8556C7.14449 21.5857 5.81564 21.4474 4.68465 21.3767C3.39104 21.2958 2.33398 20.247 2.33398 18.9509Z" fill="#EDC531"/>
<path d="M14.8757 23.908C15.2291 23.8301 15.5739 23.7044 15.8995 23.5308C17.0656 22.9093 18.5723 22.1886 19.834 21.8556C20.8568 21.5857 22.1857 21.4474 23.3166 21.3767C24.6103 21.2958 25.6673 20.247 25.6673 18.9509V5.8721C25.6673 4.62091 24.68 3.59386 23.4296 3.63741C22.1129 3.68328 20.472 3.81974 19.2507 4.18539C18.1917 4.5024 16.9585 5.13826 15.9535 5.71992C15.6134 5.91673 15.2499 6.06128 14.8757 6.15294L14.8757 23.908Z" fill="#EDC531"/>
</svg>
