<svg width="29" height="29" viewBox="0 0 29 29" fill="none" xmlns="http://www.w3.org/2000/svg">
<g id="Bold / Essentional, UI / Share Circle">
<g id="Vector">
<path d="M10.9993 7.1167C10.9993 9.0497 12.5664 10.6167 14.4993 10.6167C16.4323 10.6167 17.9993 9.0497 17.9993 7.1167C17.9993 5.1837 16.4323 3.6167 14.4993 3.6167C12.5664 3.6167 10.9994 5.1837 10.9993 7.1167Z" fill="#EDC531"/>
<path d="M3.41602 21.1167C3.41602 23.0497 4.98302 24.6167 6.91602 24.6167C8.84901 24.6167 10.416 23.0497 10.416 21.1167C10.416 19.1837 8.84901 17.6167 6.91602 17.6167C4.98302 17.6167 3.41602 19.1837 3.41602 21.1167Z" fill="#EDC531"/>
<path d="M22.0827 24.6167C20.1497 24.6167 18.5827 23.0497 18.5827 21.1167C18.5827 19.1837 20.1497 17.6167 22.0827 17.6167C24.0157 17.6167 25.5827 19.1837 25.5827 21.1167C25.5827 23.0497 24.0157 24.6167 22.0827 24.6167Z" fill="#EDC531"/>
<path d="M8.90481 8.93939C9.26712 8.61961 9.3016 8.06666 8.98182 7.70435C8.66204 7.34204 8.10909 7.30756 7.74678 7.62734C5.62891 9.4966 4.29102 12.2343 4.29102 15.2834C4.29102 15.7666 4.68277 16.1584 5.16602 16.1584C5.64926 16.1584 6.04102 15.7666 6.04102 15.2834C6.04102 12.7572 7.14734 10.4905 8.90481 8.93939Z" fill="#EDC531"/>
<path d="M21.2519 7.62734C20.8896 7.30756 20.3367 7.34204 20.0169 7.70435C19.6971 8.06666 19.7316 8.61961 20.0939 8.93939C21.8514 10.4905 22.9577 12.7572 22.9577 15.2834C22.9577 15.7666 23.3494 16.1584 23.8327 16.1584C24.3159 16.1584 24.7077 15.7666 24.7077 15.2834C24.7077 12.2343 23.3698 9.4966 21.2519 7.62734Z" fill="#EDC531"/>
<path d="M12.3841 23.4753C11.9161 23.3549 11.4391 23.6366 11.3186 24.1046C11.1982 24.5726 11.4799 25.0496 11.9479 25.1701C12.7643 25.3802 13.6195 25.4917 14.4993 25.4917C15.3792 25.4917 16.2344 25.3802 17.0508 25.1701C17.5188 25.0496 17.8005 24.5726 17.6801 24.1046C17.5596 23.6366 17.0826 23.3549 16.6146 23.4753C15.9395 23.6491 15.2309 23.7417 14.4993 23.7417C13.7678 23.7417 13.0592 23.6491 12.3841 23.4753Z" fill="#EDC531"/>
</g>
</g>
</svg>
