<svg width="34" height="35" viewBox="0 0 34 35" fill="none" xmlns="http://www.w3.org/2000/svg">
<rect y="0.5" width="33.36" height="34" rx="16.68" fill="#EDC531" fill-opacity="0.2"/>
<g clip-path="url(#clip0_661_13047)">
<path d="M18.85 18.28C18.9367 18.28 19.2617 18.4267 19.825 18.72C20.3883 19.0133 20.6867 19.19 20.72 19.25C20.7333 19.2833 20.74 19.3333 20.74 19.4C20.74 19.62 20.6833 19.8733 20.57 20.16C20.4633 20.42 20.2267 20.6383 19.86 20.815C19.4933 20.9917 19.1533 21.08 18.84 21.08C18.46 21.08 17.8267 20.8733 16.94 20.46C16.2867 20.16 15.72 19.7667 15.24 19.28C14.76 18.7933 14.2667 18.1767 13.76 17.43C13.28 16.7167 13.0433 16.07 13.05 15.49V15.41C13.07 14.8033 13.3167 14.2767 13.79 13.83C13.95 13.6833 14.1233 13.61 14.31 13.61C14.35 13.61 14.41 13.615 14.49 13.625C14.57 13.635 14.6333 13.64 14.68 13.64C14.8067 13.64 14.895 13.6617 14.945 13.705C14.995 13.7483 15.0467 13.84 15.1 13.98C15.1533 14.1133 15.2633 14.4067 15.43 14.86C15.5967 15.3133 15.68 15.5633 15.68 15.61C15.68 15.75 15.565 15.9417 15.335 16.185C15.105 16.4283 14.99 16.5833 14.99 16.65C14.99 16.6967 15.0067 16.7467 15.04 16.8C15.2667 17.2867 15.6067 17.7433 16.06 18.17C16.4333 18.5233 16.9367 18.86 17.57 19.18C17.65 19.2267 17.7233 19.25 17.79 19.25C17.89 19.25 18.07 19.0883 18.33 18.765C18.59 18.4417 18.7633 18.28 18.85 18.28ZM16.82 23.58C17.6667 23.58 18.4783 23.4133 19.255 23.08C20.0317 22.7467 20.7 22.3 21.26 21.74C21.82 21.18 22.2667 20.5117 22.6 19.735C22.9333 18.9583 23.1 18.1467 23.1 17.3C23.1 16.4533 22.9333 15.6417 22.6 14.865C22.2667 14.0883 21.82 13.42 21.26 12.86C20.7 12.3 20.0317 11.8533 19.255 11.52C18.4783 11.1867 17.6667 11.02 16.82 11.02C15.9733 11.02 15.1617 11.1867 14.385 11.52C13.6083 11.8533 12.94 12.3 12.38 12.86C11.82 13.42 11.3733 14.0883 11.04 14.865C10.7067 15.6417 10.54 16.4533 10.54 17.3C10.54 18.6533 10.94 19.88 11.74 20.98L10.95 23.31L13.37 22.54C14.4233 23.2333 15.5733 23.58 16.82 23.58ZM16.82 9.76001C17.84 9.76001 18.815 9.96001 19.745 10.36C20.675 10.76 21.4767 11.2967 22.15 11.97C22.8233 12.6433 23.36 13.445 23.76 14.375C24.16 15.305 24.36 16.28 24.36 17.3C24.36 18.32 24.16 19.295 23.76 20.225C23.36 21.155 22.8233 21.9567 22.15 22.63C21.4767 23.3033 20.675 23.84 19.745 24.24C18.815 24.64 17.84 24.84 16.82 24.84C15.52 24.84 14.3033 24.5267 13.17 23.9L9 25.24L10.36 21.19C9.64 20.0033 9.28 18.7067 9.28 17.3C9.28 16.28 9.48 15.305 9.88 14.375C10.28 13.445 10.8167 12.6433 11.49 11.97C12.1633 11.2967 12.965 10.76 13.895 10.36C14.825 9.96001 15.8 9.76001 16.82 9.76001Z" fill="#EDC531"/>
</g>
<defs>
<clipPath id="clip0_661_13047">
<rect width="15.36" height="16" fill="white" transform="translate(9 9.5)"/>
</clipPath>
</defs>
</svg>
