<svg width="34" height="33" viewBox="0 0 34 33" fill="none" xmlns="http://www.w3.org/2000/svg">
<rect y="0.124756" width="33.6667" height="32.6667" rx="16.3333" fill="#EDC531" fill-opacity="0.2"/>
<path d="M16.8333 11.8748C17.3859 11.8748 17.9158 12.0942 18.3065 12.485C18.6972 12.8757 18.9167 13.4056 18.9167 13.9581C18.9167 14.2317 18.8628 14.5026 18.7581 14.7553C18.6534 15.0081 18.4999 15.2378 18.3065 15.4312C18.113 15.6247 17.8834 15.7781 17.6306 15.8828C17.3778 15.9875 17.1069 16.0414 16.8333 16.0414C16.2808 16.0414 15.7509 15.8219 15.3602 15.4312C14.9695 15.0405 14.75 14.5106 14.75 13.9581C14.75 13.4056 14.9695 12.8757 15.3602 12.485C15.7509 12.0942 16.2808 11.8748 16.8333 11.8748ZM16.8333 8.12476C18.3804 8.12476 19.8642 8.73934 20.9581 9.8333C22.0521 10.9273 22.6667 12.411 22.6667 13.9581C22.6667 18.3331 16.8333 24.7914 16.8333 24.7914C16.8333 24.7914 11 18.3331 11 13.9581C11 12.411 11.6146 10.9273 12.7085 9.8333C13.8025 8.73934 15.2862 8.12476 16.8333 8.12476ZM16.8333 9.79142C15.7283 9.79142 14.6685 10.2304 13.8871 11.0118C13.1057 11.7932 12.6667 12.853 12.6667 13.9581C12.6667 14.7914 12.6667 16.4581 16.8333 22.0498C21 16.4581 21 14.7914 21 13.9581C21 12.853 20.561 11.7932 19.7796 11.0118C18.9982 10.2304 17.9384 9.79142 16.8333 9.79142Z" fill="#EDC531"/>
</svg>
