<svg width="28" height="29" viewBox="0 0 28 29" fill="none" xmlns="http://www.w3.org/2000/svg">
<path d="M16.5447 5.10485C17.0114 5.22992 17.2885 5.70971 17.1634 6.1765L12.5275 23.4778C12.4024 23.9446 11.9226 24.2216 11.4559 24.0965C10.9891 23.9715 10.7121 23.4917 10.8371 23.0249L15.473 5.72356C15.5981 5.25678 16.0779 4.97977 16.5447 5.10485Z" fill="#EDC531"/>
<path d="M19.1832 8.66587C19.5065 8.30668 20.0597 8.27756 20.4189 8.60084L22.446 10.4252C23.3051 11.1983 24.0177 11.8396 24.507 12.4213C25.0215 13.0329 25.3873 13.69 25.3873 14.5012C25.3873 15.3124 25.0215 15.9695 24.507 16.5812C24.0177 17.1628 23.3051 17.8041 22.446 18.5772L20.4189 20.4016C20.0597 20.7249 19.5065 20.6958 19.1832 20.3366C18.8599 19.9774 18.889 19.4241 19.2482 19.1008L21.2274 17.3195C22.1466 16.4923 22.7664 15.9318 23.1678 15.4546C23.5531 14.9966 23.6373 14.7292 23.6373 14.5012C23.6373 14.2732 23.5531 14.0058 23.1678 13.5478C22.7664 13.0706 22.1466 12.5102 21.2274 11.6829L19.2482 9.9016C18.889 9.57832 18.8599 9.02507 19.1832 8.66587Z" fill="#EDC531"/>
<path d="M8.75232 9.9016C9.11151 9.57832 9.14063 9.02507 8.81735 8.66587C8.49408 8.30668 7.94082 8.27756 7.58163 8.60084L5.55456 10.4252C4.69549 11.1983 3.98289 11.8396 3.49357 12.4213C2.97904 13.0329 2.61328 13.69 2.61328 14.5012C2.61328 15.3124 2.97904 15.9695 3.49357 16.5812C3.98288 17.1628 4.69548 17.8041 5.55453 18.5772L7.58163 20.4016C7.94082 20.7249 8.49408 20.6958 8.81735 20.3366C9.14063 19.9774 9.11151 19.4241 8.75232 19.1008L6.7731 17.3195C5.85391 16.4923 5.23418 15.9318 4.83273 15.4546C4.44744 14.9966 4.36328 14.7292 4.36328 14.5012C4.36328 14.2732 4.44744 14.0058 4.83273 13.5478C5.23418 13.0706 5.85391 12.5102 6.7731 11.6829L8.75232 9.9016Z" fill="#EDC531"/>
</svg>
