<svg width="28" height="29" viewBox="0 0 28 29" fill="none" xmlns="http://www.w3.org/2000/svg">
<path d="M4.48528 4.60199C3.17157 5.9157 3.17157 8.04564 4.48528 9.35935L6.33764 11.2117C6.35155 11.1956 6.36614 11.1799 6.38141 11.1647L11.0481 6.49799C11.0633 6.48276 11.079 6.46821 11.095 6.45434L9.24264 4.60199C7.92893 3.28828 5.79899 3.28828 4.48528 4.60199Z" fill="#EDC531"/>
<path d="M12.3292 7.68852C12.3153 7.70455 12.3007 7.7202 12.2855 7.73543L7.61885 12.4021C7.60358 12.4174 7.58788 12.432 7.5718 12.4459L18.7574 23.6314C20.0711 24.9451 22.201 24.9451 23.5147 23.6314C24.8284 22.3177 24.8284 20.1878 23.5147 18.8741L12.3292 7.68852Z" fill="#EDC531"/>
<path d="M18.7834 2.80843C18.9711 2.33058 19.6449 2.33058 19.8327 2.80843L20.3348 4.08626C20.3921 4.23215 20.5072 4.34764 20.6525 4.40517L21.9257 4.90914C22.4018 5.0976 22.4018 5.77388 21.9257 5.96234L20.6525 6.46631C20.5072 6.52385 20.3921 6.63933 20.3348 6.78522L19.8327 8.06306C19.6449 8.54091 18.9711 8.54091 18.7834 8.06306L18.2813 6.78522C18.2239 6.63933 18.1089 6.52385 17.9635 6.46631L16.6904 5.96234C16.2143 5.77388 16.2143 5.0976 16.6904 4.90914L17.9635 4.40517C18.1089 4.34764 18.2239 4.23215 18.2813 4.08626L18.7834 2.80843Z" fill="#EDC531"/>
<path d="M23.295 10.7677C23.4828 10.2899 24.1566 10.2899 24.3444 10.7677L24.5274 11.2336C24.5848 11.3795 24.6998 11.495 24.8452 11.5526L25.3094 11.7363C25.7854 11.9248 25.7854 12.601 25.3094 12.7895L24.8452 12.9733C24.6998 13.0308 24.5848 13.1463 24.5274 13.2922L24.3444 13.7581C24.1566 14.2359 23.4828 14.2359 23.295 13.7581L23.112 13.2922C23.0546 13.1463 22.9396 13.0308 22.7942 12.9733L22.33 12.7895C21.854 12.601 21.854 11.9248 22.33 11.7363L22.7942 11.5526C22.9396 11.495 23.0546 11.3795 23.112 11.2336L23.295 10.7677Z" fill="#EDC531"/>
<path d="M5.98873 17.9751C6.1765 17.4972 6.85028 17.4972 7.03805 17.9751L7.22112 18.441C7.27845 18.5869 7.3935 18.7024 7.53886 18.7599L8.00304 18.9437C8.47913 19.1321 8.47913 19.8084 8.00304 19.9969L7.53886 20.1806C7.3935 20.2381 7.27845 20.3536 7.22112 20.4995L7.03805 20.9654C6.85028 21.4433 6.1765 21.4433 5.98873 20.9654L5.80566 20.4995C5.74833 20.3536 5.63327 20.2381 5.48792 20.1806L5.02373 19.9969C4.54764 19.8084 4.54764 19.1321 5.02373 18.9437L5.48792 18.7599C5.63327 18.7024 5.74833 18.5869 5.80566 18.441L5.98873 17.9751Z" fill="#EDC531"/>
</svg>
