<svg width="28" height="29" viewBox="0 0 28 29" fill="none" xmlns="http://www.w3.org/2000/svg">
<path fill-rule="evenodd" clip-rule="evenodd" d="M9.22543 5.08171C8.83921 3.56876 7.46724 2.45004 5.83398 2.45004C3.90099 2.45004 2.33398 4.01705 2.33398 5.95004C2.33398 7.5833 3.4527 8.95527 4.96565 9.34149C4.96125 9.37706 4.95898 9.41328 4.95898 9.45004V18.7834C4.95898 18.8201 4.96125 18.8564 4.96566 18.8919C3.4527 19.2781 2.33398 20.6501 2.33398 22.2834C2.33398 24.2164 3.90099 25.7834 5.83398 25.7834C7.46725 25.7834 8.83922 24.6647 9.22543 23.1517C9.261 23.1561 9.29722 23.1584 9.33398 23.1584H18.6673C18.7041 23.1584 18.7403 23.1561 18.7759 23.1517C19.1621 24.6647 20.5341 25.7834 22.1673 25.7834C24.1003 25.7834 25.6673 24.2164 25.6673 22.2834C25.6673 20.6501 24.5486 19.2781 23.0356 18.8919C23.04 18.8564 23.0423 18.8201 23.0423 18.7834V9.45004C23.0423 9.41328 23.04 9.37706 23.0356 9.34149C24.5486 8.95528 25.6673 7.58331 25.6673 5.95004C25.6673 4.01705 24.1003 2.45004 22.1673 2.45004C20.5341 2.45004 19.1621 3.56876 18.7759 5.08172C18.7403 5.07731 18.7041 5.07504 18.6673 5.07504H9.33398C9.29723 5.07504 9.261 5.07731 9.22543 5.08171ZM6.70232 9.34149C6.70672 9.37706 6.70898 9.41328 6.70898 9.45004L6.70898 18.7834C6.70898 18.8201 6.70671 18.8564 6.70231 18.8919C7.93761 19.2073 8.91009 20.1797 9.22543 21.415C9.261 21.4106 9.29722 21.4084 9.33398 21.4084H18.6673C18.7041 21.4084 18.7403 21.4106 18.7759 21.415C19.0912 20.1797 20.0637 19.2073 21.299 18.8919C21.2946 18.8564 21.2923 18.8201 21.2923 18.7834V9.45004C21.2923 9.41328 21.2946 9.37706 21.299 9.34149C20.0637 9.02615 19.0912 8.05367 18.7759 6.81837C18.7403 6.82277 18.7041 6.82504 18.6673 6.82504H9.33398C9.29723 6.82504 9.261 6.82278 9.22543 6.81838C8.91009 8.05367 7.93761 9.02615 6.70232 9.34149Z" fill="#EDC531"/>
</svg>
