<svg width="28" height="29" viewBox="0 0 28 29" fill="none" xmlns="http://www.w3.org/2000/svg">
<path d="M7.30261 25.0698H6.99935C5.89941 25.0698 5.34943 25.0698 5.00772 24.7281C4.66602 24.3864 4.66602 23.8364 4.66602 22.7365V21.4392C4.66602 20.8343 4.66602 20.5318 4.82139 20.2617C4.97677 19.9916 5.21117 19.8553 5.67997 19.5826C8.76635 17.7875 13.1495 16.7771 16.0749 18.5219C16.2715 18.6391 16.4483 18.7807 16.5993 18.9503C17.2504 19.6817 17.203 20.7855 16.4526 21.4404C16.2941 21.5788 16.1252 21.6836 15.9551 21.7201C16.0949 21.7039 16.2289 21.6853 16.3567 21.6649C17.42 21.4953 18.3126 20.9271 19.1297 20.3099L21.2381 18.7172C21.9814 18.1557 23.0845 18.1556 23.828 18.7169C24.4972 19.2223 24.7019 20.0543 24.2788 20.7326C23.7853 21.5235 23.0901 22.5353 22.4226 23.1536C21.7541 23.7727 20.7589 24.3255 19.9464 24.7177C19.0464 25.1521 18.0521 25.4024 17.0408 25.5661C14.9897 25.8981 12.852 25.8474 10.8217 25.4291C9.67397 25.1927 8.48194 25.0698 7.30261 25.0698Z" fill="#EDC531"/>
<path d="M12.6721 4.04062C13.2632 2.98023 13.5588 2.45004 14.0007 2.45004C14.4425 2.45004 14.7381 2.98023 15.3292 4.04062L15.4821 4.31495C15.6501 4.61628 15.7341 4.76694 15.865 4.86635C15.996 4.96576 16.1591 5.00266 16.4852 5.07647L16.7822 5.14366C17.9301 5.40337 18.504 5.53322 18.6405 5.97232C18.7771 6.41141 18.3858 6.86894 17.6033 7.78401L17.4008 8.02075C17.1785 8.28078 17.0673 8.4108 17.0172 8.57164C16.9672 8.73249 16.984 8.90596 17.0177 9.2529L17.0483 9.56876C17.1666 10.7897 17.2257 11.4001 16.8682 11.6715C16.5108 11.9429 15.9734 11.6954 14.8987 11.2006L14.6206 11.0726C14.3152 10.9319 14.1625 10.8616 14.0007 10.8616C13.8388 10.8616 13.6861 10.9319 13.3807 11.0726L13.1026 11.2006C12.0279 11.6954 11.4905 11.9429 11.1331 11.6715C10.7756 11.4001 10.8347 10.7897 10.953 9.56876L10.9836 9.2529C11.0173 8.90596 11.0341 8.73249 10.9841 8.57164C10.934 8.4108 10.8228 8.28078 10.6005 8.02075L10.398 7.78401C9.6155 6.86894 9.22424 6.41141 9.36078 5.97232C9.49733 5.53322 10.0713 5.40337 11.2191 5.14366L11.5161 5.07647C11.8422 5.00266 12.0053 4.96576 12.1363 4.86635C12.2672 4.76694 12.3512 4.61628 12.5192 4.31495L12.6721 4.04062Z" fill="#EDC531"/>
<path d="M22.6697 9.07866C22.9653 8.54847 23.113 8.28338 23.334 8.28338C23.5549 8.28338 23.7027 8.54847 23.9982 9.07866L24.0747 9.21583C24.1587 9.36649 24.2007 9.44183 24.2662 9.49153C24.3316 9.54124 24.4132 9.55969 24.5763 9.59659L24.7248 9.63018C25.2987 9.76004 25.5856 9.82497 25.6539 10.0445C25.7222 10.2641 25.5266 10.4928 25.1353 10.9504L25.0341 11.0687C24.9229 11.1987 24.8673 11.2638 24.8423 11.3442C24.8173 11.4246 24.8257 11.5113 24.8425 11.6848L24.8578 11.8427C24.9169 12.4532 24.9465 12.7584 24.7678 12.8941C24.589 13.0298 24.3204 12.9061 23.783 12.6586L23.644 12.5946C23.4913 12.5243 23.4149 12.4892 23.334 12.4892C23.2531 12.4892 23.1767 12.5243 23.024 12.5946L22.885 12.6586C22.3476 12.9061 22.0789 13.0298 21.9002 12.8941C21.7214 12.7584 21.751 12.4532 21.8102 11.8427L21.8255 11.6848C21.8423 11.5113 21.8507 11.4246 21.8257 11.3442C21.8007 11.2638 21.7451 11.1987 21.6339 11.0687L21.5327 10.9504C21.1414 10.4928 20.9458 10.2641 21.014 10.0445C21.0823 9.82497 21.3693 9.76004 21.9432 9.63018L22.0917 9.59659C22.2548 9.55969 22.3363 9.54124 22.4018 9.49153C22.4673 9.44183 22.5093 9.36649 22.5933 9.21583L22.6697 9.07866Z" fill="#EDC531"/>
<path d="M4.00306 9.07866C4.29861 8.54847 4.44638 8.28338 4.66732 8.28338C4.88825 8.28338 5.03603 8.54847 5.33158 9.07866L5.40804 9.21583C5.49203 9.36649 5.53402 9.44183 5.5995 9.49153C5.66497 9.54124 5.74652 9.55969 5.90961 9.59659L6.05809 9.63018C6.63202 9.76004 6.91898 9.82497 6.98725 10.0445C7.05553 10.2641 6.85989 10.4928 6.46863 10.9504L6.3674 11.0687C6.25622 11.1987 6.20063 11.2638 6.17562 11.3442C6.15061 11.4246 6.15901 11.5113 6.17582 11.6848L6.19112 11.8427C6.25028 12.4532 6.27986 12.7584 6.10112 12.8941C5.92238 13.0298 5.65369 12.9061 5.11633 12.6586L4.9773 12.5946C4.8246 12.5243 4.74825 12.4892 4.66732 12.4892C4.58639 12.4892 4.51003 12.5243 4.35733 12.5946L4.21831 12.6586C3.68094 12.9061 3.41226 13.0298 3.23352 12.8941C3.05478 12.7584 3.08436 12.4532 3.14351 11.8427L3.15881 11.6848C3.17562 11.5113 3.18403 11.4246 3.15902 11.3442C3.13401 11.2638 3.07842 11.1987 2.96723 11.0687L2.86601 10.9504C2.47474 10.4928 2.27911 10.2641 2.34738 10.0445C2.41566 9.82497 2.70262 9.76004 3.27654 9.63018L3.42502 9.59659C3.58812 9.55969 3.66966 9.54124 3.73514 9.49153C3.80061 9.44183 3.84261 9.36649 3.92659 9.21583L4.00306 9.07866Z" fill="#EDC531"/>
</svg>
