<svg width="28" height="29" viewBox="0 0 28 29" fill="none" xmlns="http://www.w3.org/2000/svg">
<path d="M21.417 1.99984C21.6656 1.58546 22.2031 1.45109 22.6175 1.69972L22.1673 2.45002C22.6175 1.69972 22.6171 1.69948 22.6175 1.69972L22.6191 1.70069L22.621 1.7018L22.6253 1.70443L22.6365 1.71133C22.645 1.71667 22.6558 1.72348 22.6687 1.73179C22.6943 1.74839 22.7283 1.77099 22.7694 1.79973C22.8514 1.85715 22.9622 1.93941 23.0921 2.04762C23.3512 2.26356 23.6901 2.58614 24.0275 3.02486C24.7075 3.90888 25.3757 5.25859 25.3757 7.11669C25.3757 8.97479 24.7075 10.3245 24.0275 11.2085C23.6901 11.6472 23.3512 11.9698 23.0921 12.1858C22.9622 12.294 22.8514 12.3762 22.7694 12.4336C22.7283 12.4624 22.6943 12.485 22.6687 12.5016C22.6623 12.5057 22.6564 12.5095 22.651 12.5129C22.6456 12.5163 22.6408 12.5194 22.6365 12.522L22.6253 12.529L22.621 12.5316L22.6191 12.5327C22.6187 12.5329 22.6175 12.5337 22.1673 11.7834L22.6175 12.5337C22.2031 12.7823 21.6656 12.6479 21.417 12.2335C21.1694 11.8209 21.3016 11.2862 21.7119 11.0362L21.7184 11.0321C21.7269 11.0266 21.743 11.0159 21.7658 11C21.8114 10.9681 21.8828 10.9154 21.9717 10.8414C22.1501 10.6927 22.3946 10.4611 22.6404 10.1415C23.1271 9.50888 23.6257 8.52526 23.6257 7.11669C23.6257 5.70812 23.1271 4.72449 22.6404 4.09185C22.3946 3.77224 22.1501 3.54066 21.9717 3.39201C21.8828 3.31793 21.8114 3.26529 21.7658 3.23339C21.743 3.21746 21.7269 3.2068 21.7184 3.2013L21.7119 3.19718C21.3016 2.94718 21.1694 2.41248 21.417 1.99984Z" fill="#EDC531"/>
<path d="M11.6673 11.7834C14.2446 11.7834 16.334 9.69402 16.334 7.11669C16.334 4.53936 14.2446 2.45002 11.6673 2.45002C9.08999 2.45002 7.00065 4.53936 7.00065 7.11669C7.00065 9.69402 9.08999 11.7834 11.6673 11.7834Z" fill="#EDC531"/>
<path d="M2.33398 20.5334C2.33398 23.4329 2.33398 25.7834 11.6673 25.7834C21.0007 25.7834 21.0007 23.4329 21.0007 20.5334C21.0007 17.6339 16.822 15.2834 11.6673 15.2834C6.51266 15.2834 2.33398 17.6339 2.33398 20.5334Z" fill="#EDC531"/>
<path d="M20.2842 4.03305C19.8698 3.78442 19.3323 3.91879 19.0837 4.33317L19.3733 5.52725L19.3823 5.53345C19.396 5.54302 19.4219 5.56194 19.4561 5.59045C19.5251 5.64795 19.6238 5.74099 19.7238 5.87102C19.9188 6.12449 20.1257 6.52479 20.1257 7.11669C20.1257 7.70859 19.9188 8.10888 19.7238 8.36236C19.6238 8.49239 19.5251 8.58543 19.4561 8.64293C19.4219 8.67144 19.396 8.69036 19.3823 8.69993L19.3733 8.70613C18.9672 8.95749 18.8372 9.48935 19.0837 9.90021C19.3323 10.3146 19.8698 10.449 20.2842 10.2003L19.834 9.45002C20.2842 10.2003 20.2838 10.2006 20.2842 10.2003L20.2857 10.1994L20.2874 10.1984L20.2911 10.1961L20.2998 10.1908L20.3222 10.1765C20.3394 10.1654 20.3608 10.1512 20.3859 10.1336C20.436 10.0985 20.5013 10.05 20.5764 9.98732C20.7262 9.86253 20.9192 9.67849 21.1109 9.42935C21.4992 8.92449 21.8757 8.15812 21.8757 7.11669C21.8757 6.07526 21.4992 5.30888 21.1109 4.80403C20.9192 4.55489 20.7262 4.37085 20.5764 4.24606C20.5013 4.18342 20.436 4.13489 20.3859 4.0998C20.3608 4.08222 20.3394 4.06794 20.3222 4.05686L20.2998 4.04261L20.2911 4.03725L20.2874 4.035L20.2857 4.03399C20.2853 4.03376 20.2842 4.03305 19.834 4.78336L20.2842 4.03305Z" fill="#EDC531"/>
</svg>
