<svg width="16" height="16" viewBox="0 0 16 16" fill="none" xmlns="http://www.w3.org/2000/svg">
<g id="iconoir:language" clip-path="url(#clip0_661_13087)">
<g id="Group">
<path id="Vector" d="M1.33301 8.00004C1.33301 11.682 4.31767 14.6667 7.99967 14.6667C11.6817 14.6667 14.6663 11.682 14.6663 8.00004C14.6663 4.31804 11.6817 1.33337 7.99967 1.33337C4.31767 1.33337 1.33301 4.31804 1.33301 8.00004Z" stroke="white" stroke-linecap="round" stroke-linejoin="round"/>
<path id="Vector_2" d="M8.66626 1.3667C8.66626 1.3667 10.6663 4.00003 10.6663 8.00003C10.6663 12 8.66626 14.6334 8.66626 14.6334M7.33293 14.6334C7.33293 14.6334 5.33293 12 5.33293 8.00003C5.33293 4.00003 7.33293 1.3667 7.33293 1.3667M1.75293 10.3334H14.2463M1.75293 5.6667H14.2463" stroke="white" stroke-linecap="round" stroke-linejoin="round"/>
</g>
</g>
<defs>
<clipPath id="clip0_661_13087">
<rect width="16" height="16" fill="white"/>
</clipPath>
</defs>
</svg>
