<svg width="80" height="21" viewBox="0 0 80 21" fill="none" xmlns="http://www.w3.org/2000/svg">
<path d="M24.4211 11.4266V17.1683H21.4737V12.1183C21.4737 10.5766 20.6021 9.93496 19.7895 9.93496C19.4952 9.92662 19.2024 9.97945 18.9301 10.09C18.6577 10.2006 18.4118 10.3665 18.2083 10.5769C18.0047 10.7874 17.8481 11.0378 17.7484 11.3119C17.6487 11.586 17.6082 11.8777 17.6295 12.1683V17.1683H14.7368V7.58496H17.5158V8.93913H17.5537C17.8442 8.35163 19.0863 7.37663 20.7789 7.37663C22.4716 7.37663 24.4211 8.50996 24.4211 11.4266ZM10.1053 17.1683H13.0526V7.58496H10.1053V17.1683ZM11.5789 2.77246C11.2426 2.77657 10.915 2.87902 10.6374 3.06693C10.3597 3.25483 10.1444 3.5198 10.0186 3.82849C9.89273 4.13718 9.86195 4.4758 9.93011 4.80176C9.99827 5.12772 10.1623 5.42645 10.4016 5.66037C10.6409 5.89429 10.9448 6.05296 11.275 6.1164C11.6052 6.17984 11.947 6.14523 12.2573 6.01692C12.5677 5.8886 12.8328 5.67232 13.0193 5.39528C13.2057 5.11825 13.3052 4.79282 13.3053 4.45996C13.3082 4.23579 13.2653 4.01335 13.1793 3.80594C13.0933 3.59854 12.966 3.41043 12.8048 3.25288C12.6436 3.09534 12.452 2.97158 12.2413 2.88904C12.0307 2.80649 11.8054 2.76684 11.5789 2.77246ZM80 1.54329V18.6266C80 19.0134 79.8447 19.3843 79.5684 19.6578C79.292 19.9313 78.9172 20.085 78.5263 20.085H61.2632C60.8723 20.085 60.4975 19.9313 60.2211 19.6578C59.9447 19.3843 59.7895 19.0134 59.7895 18.6266V1.54329C59.7895 1.15652 59.9447 0.785587 60.2211 0.512097C60.4975 0.238606 60.8723 0.0849609 61.2632 0.0849609L78.5263 0.0849609C78.9172 0.0849609 79.292 0.238606 79.5684 0.512097C79.8447 0.785587 80 1.15652 80 1.54329ZM65.6842 7.58496H62.7368V17.1683H65.6842V7.58496ZM65.9368 4.45996C65.941 4.12123 65.8433 3.78891 65.6562 3.50525C65.4691 3.22159 65.2009 2.99939 64.8859 2.86689C64.5708 2.73439 64.2231 2.69757 63.8868 2.76112C63.5506 2.82466 63.241 2.9857 62.9975 3.22377C62.7539 3.46183 62.5874 3.76617 62.5191 4.09811C62.4507 4.43005 62.4837 4.7746 62.6137 5.08798C62.7437 5.40135 62.965 5.66939 63.2493 5.85804C63.5336 6.0467 63.8682 6.14744 64.2105 6.14746C64.437 6.15308 64.6623 6.11343 64.8729 6.03089C65.0836 5.94834 65.2752 5.82459 65.4364 5.66704C65.5975 5.50949 65.7249 5.32138 65.8109 5.11398C65.8969 4.90657 65.9398 4.68413 65.9368 4.45996ZM77.0526 11.4266C77.0526 8.50996 75.1032 7.37663 73.4105 7.37663C71.7179 7.37663 70.4632 8.35163 70.1853 8.93913H70.1474V7.58496H67.3684V17.1683H70.3158V12.1683C70.3158 10.6308 71.3726 9.94746 72.4 9.94746C73.2421 9.94746 74.1053 10.5891 74.1053 12.1308V17.1683H77.0526V11.4266ZM3.36842 3.00163H0V17.1683H8.8421V14.2516H3.36842V3.00163ZM45.4737 12.4891C45.4737 12.8058 45.4737 13.2225 45.4737 13.3225H38.3158C38.3158 13.3225 38.3158 13.385 38.3621 13.5016C38.6063 14.3058 39.4863 14.985 40.7832 14.985C41.1922 15.0053 41.6005 14.9316 41.976 14.7697C42.3514 14.6078 42.6839 14.362 42.9474 14.0516L45.0947 15.3766C44.5716 16.0285 43.9006 16.5493 43.1362 16.8968C42.3717 17.2442 41.5353 17.4086 40.6947 17.3766C37.8695 17.3766 35.3684 15.6766 35.3684 12.4141C35.3684 9.15163 37.8947 7.37663 40.6063 7.37663C43.3179 7.37663 45.4737 9.17246 45.4737 12.4891ZM42.5263 11.335C42.5263 10.335 41.8695 9.50996 40.5263 9.50996C39.2632 9.50996 38.3832 10.3433 38.3158 11.335H42.5263ZM35.8989 7.58496H32.2863L29.1116 11.4891H29.0526V3.00163H26.1053V17.1683H29.0526V12.585H29.1116L32.3621 17.1683H36.0547L32.0842 11.9308L35.8989 7.58496ZM53.8947 3.00163H56.8421V17.1683H54.0632V15.9183H54.0253C53.6547 16.5516 52.6611 17.3725 50.9095 17.3725C48.8042 17.3725 46.3158 15.86 46.3158 12.3725C46.3158 9.23496 48.4632 7.39329 50.8716 7.39329C51.4297 7.38447 51.9835 7.49111 52.4976 7.70636C53.0117 7.92161 53.4746 8.24073 53.8568 8.64329H53.8947V3.00163ZM54.0211 12.3725C54.0295 12.0532 53.9732 11.7354 53.8555 11.438C53.7379 11.1406 53.5612 10.8695 53.3359 10.6407C53.1106 10.412 52.8413 10.2302 52.5439 10.1061C52.2465 9.98206 51.927 9.91819 51.6042 9.91829C51.2824 9.91089 50.9624 9.96949 50.6646 10.0904C50.3668 10.2113 50.0974 10.392 49.8736 10.6209C49.6497 10.8499 49.4762 11.1222 49.3639 11.4208C49.2516 11.7194 49.203 12.0377 49.2211 12.3558C49.2014 12.6762 49.2486 12.9972 49.3598 13.2988C49.471 13.6004 49.6438 13.8761 49.8674 14.1087C50.091 14.3413 50.3606 14.5258 50.6594 14.6507C50.9582 14.7757 51.2798 14.8384 51.6042 14.835C52.2545 14.8251 52.8743 14.5602 53.3275 14.0985C53.7806 13.6368 54.0301 13.016 54.0211 12.3725Z" fill="white"/>
</svg>
