<svg width="160" height="80" viewBox="0 0 160 80" fill="none" xmlns="http://www.w3.org/2000/svg">
<path d="M4.13672 46.3004H8.66939V68.0898H4.13672V46.3004Z" fill="white"/>
<path d="M11.2972 60.6241C11.2942 59.0591 11.7649 57.5283 12.6496 56.2255C13.5343 54.9228 14.7934 53.9066 16.2674 53.3057C17.7413 52.7047 19.364 52.546 20.9301 52.8495C22.4962 53.1531 23.9352 53.9052 25.065 55.0109C26.1949 56.1165 26.9648 57.5259 27.2773 59.0607C27.5899 60.5954 27.431 62.1866 26.8208 63.6329C26.2106 65.079 25.1765 66.3153 23.8493 67.1851C22.5223 68.055 20.9618 68.5192 19.3654 68.5192C18.3037 68.5311 17.2504 68.3352 16.267 67.9427C15.2837 67.5504 14.3901 66.9695 13.6387 66.2342C12.8873 65.4989 12.2931 64.624 11.8911 63.6605C11.489 62.6972 11.2871 61.6649 11.2972 60.6241ZM22.8706 60.6241C22.8528 59.9485 22.6322 59.293 22.2363 58.7397C21.8405 58.1863 21.287 57.7598 20.6451 57.5132C20.0032 57.2666 19.3014 57.2113 18.6277 57.3537C17.9538 57.4961 17.3378 57.8302 16.8565 58.3142C16.3754 58.7981 16.0504 59.4105 15.9223 60.0746C15.7942 60.7386 15.8688 61.4251 16.1365 62.0478C16.4043 62.6705 16.8534 63.2022 17.4277 63.576C18.0021 63.9498 18.676 64.1493 19.3654 64.1494C19.837 64.1625 20.3062 64.0795 20.7435 63.9057C21.1808 63.7319 21.5766 63.4712 21.9061 63.1399C22.2354 62.8086 22.4912 62.4141 22.6571 61.9811C22.8232 61.548 22.8959 61.0861 22.8706 60.6241Z" fill="white"/>
<path d="M45.6544 53.1586V67.349C45.6544 72.3705 41.6506 74.4888 37.6014 74.4888C36.1776 74.5926 34.752 74.3103 33.4808 73.6728C32.2096 73.0353 31.1419 72.0671 30.3946 70.8745L34.2926 68.6674C34.6019 69.2786 35.0914 69.7848 35.6974 70.1202C36.3035 70.4555 36.9984 70.6049 37.6922 70.5485C38.1485 70.6232 38.6163 70.594 39.0595 70.4632C39.5027 70.3325 39.9093 70.1038 40.248 69.7947C40.5866 69.4855 40.8483 69.1042 41.013 68.6802C41.1776 68.2562 41.2406 67.8008 41.1973 67.349V65.9714C40.6645 66.6143 39.9845 67.1249 39.2128 67.462C38.4411 67.7991 37.5992 67.9532 36.7554 67.912C34.7037 67.912 32.7362 67.1129 31.2853 65.6907C29.8346 64.2684 29.0195 62.3393 29.0195 60.3278C29.0195 58.3164 29.8346 56.3874 31.2853 54.9652C32.7362 53.5429 34.7037 52.7438 36.7554 52.7438C37.5987 52.706 38.4394 52.8618 39.2106 53.1986C39.9818 53.5355 40.6621 54.0442 41.1973 54.6842V53.203L45.6544 53.1586ZM41.1973 60.3278C41.2275 59.6075 41.0371 58.8947 40.6509 58.2811C40.2645 57.6676 39.6998 57.1813 39.0294 56.885C38.359 56.5885 37.6134 56.4955 36.8886 56.6179C36.1638 56.7401 35.493 57.0721 34.9622 57.5711C34.4314 58.0703 34.065 58.7136 33.9101 59.4183C33.7551 60.1231 33.8187 60.8574 34.0928 61.5264C34.3669 62.1956 34.8387 62.7689 35.4478 63.173C36.057 63.5772 36.7754 63.7934 37.5107 63.794C37.9909 63.8273 38.4726 63.7617 38.9251 63.6012C39.3778 63.4408 39.791 63.1893 40.1384 62.8627C40.4856 62.5362 40.7594 62.1418 40.9418 61.7052C41.1242 61.2687 41.2112 60.7995 41.1973 60.3278Z" fill="white"/>
<path d="M48.2699 60.6241C48.2669 59.0591 48.7376 57.5283 49.6222 56.2255C50.507 54.9228 51.7661 53.9066 53.24 53.3057C54.7139 52.7047 56.3366 52.546 57.9027 52.8495C59.4688 53.1531 60.9078 53.9052 62.0377 55.0109C63.1675 56.1165 63.9374 57.5259 64.2501 59.0607C64.5625 60.5954 64.4037 62.1866 63.7934 63.6329C63.1832 65.079 62.1491 66.3153 60.8221 67.1851C59.4949 68.055 57.9344 68.5192 56.3381 68.5192C55.2765 68.5311 54.223 68.3352 53.2397 67.9427C52.2563 67.5504 51.3627 66.9695 50.6113 66.2342C49.86 65.4989 49.2657 64.624 48.8637 63.6605C48.4616 62.6972 48.2597 61.6649 48.2699 60.6241ZM59.8433 60.6241C59.8254 59.9485 59.6048 59.293 59.2089 58.7397C58.8131 58.1863 58.2597 57.7598 57.6177 57.5132C56.976 57.2666 56.2742 57.2113 55.6003 57.3537C54.9264 57.4961 54.3104 57.8302 53.8291 58.3142C53.348 58.7981 53.023 59.4105 52.8949 60.0746C52.7669 60.7386 52.8414 61.4251 53.1091 62.0478C53.3769 62.6705 53.8261 63.2022 54.4003 63.576C54.9747 63.9498 55.6486 64.1493 56.3381 64.1494C56.8072 64.1582 57.2731 64.0723 57.7069 63.8966C58.1405 63.7209 58.5326 63.4596 58.8587 63.1287C59.1848 62.7981 59.4377 62.4048 59.6021 61.9739C59.7662 61.543 59.8381 61.0834 59.8131 60.6241H59.8433Z" fill="white"/>
<path d="M66.5059 49.1593C66.5059 48.6261 66.6671 48.1048 66.9692 47.6615C67.2715 47.2182 67.7009 46.8727 68.2033 46.6686C68.7059 46.4645 69.2587 46.4112 69.7921 46.5152C70.3255 46.6192 70.8155 46.876 71.2001 47.2529C71.5847 47.63 71.8465 48.1103 71.9526 48.6333C72.0588 49.1563 72.0043 49.6984 71.7963 50.1909C71.5881 50.6835 71.2356 51.1047 70.7835 51.4008C70.3311 51.697 69.7996 51.8551 69.2556 51.8551C68.5276 51.8513 67.8305 51.566 67.3156 51.0612C66.8007 50.5566 66.5099 49.8731 66.5059 49.1593ZM66.9742 53.1586H71.5068V68.0898H66.9742V53.1586Z" fill="white"/>
<path d="M91.2682 60.6241C91.3231 61.6111 91.1784 62.599 90.8424 63.5309C90.5063 64.4629 89.9856 65.3204 89.3101 66.0542C88.6346 66.788 87.8178 67.3836 86.9066 67.8067C85.9954 68.2298 85.0079 68.4719 84.0008 68.5193C83.1554 68.559 82.3112 68.4166 81.5282 68.1018C80.745 67.7869 80.0418 67.3076 79.4682 66.6974V74.1036H74.9355V53.1585H79.4682V54.5658C80.0418 53.9556 80.745 53.4762 81.5282 53.1614C82.3112 52.8466 83.1554 52.7041 84.0008 52.7438C85.0066 52.7912 85.9928 53.0329 86.9029 53.455C87.8131 53.8773 88.6293 54.4715 89.3045 55.2037C89.9799 55.936 90.5008 56.7916 90.8378 57.7218C91.1749 58.652 91.3211 59.6384 91.2682 60.6241ZM86.7355 60.6241C86.7176 59.9289 86.492 59.2541 86.0867 58.6832C85.6815 58.1126 85.1144 57.6707 84.4557 57.4128C83.797 57.1548 83.0754 57.0919 82.3807 57.232C81.6858 57.3719 81.048 57.7087 80.5464 58.2004C80.0448 58.6922 79.7015 59.3173 79.5586 59.9985C79.4159 60.6798 79.48 61.3871 79.7431 62.0329C80.0063 62.6787 80.4568 63.2348 81.0391 63.632C81.6213 64.0293 82.3096 64.2505 83.0187 64.268C83.5136 64.2989 84.0095 64.2255 84.4731 64.053C84.9367 63.8803 85.3571 63.6123 85.7064 63.2672C86.0555 62.922 86.3255 62.5076 86.4978 62.0517C86.6699 61.5959 86.7408 61.1091 86.7053 60.6241H86.7355Z" fill="white"/>
<path d="M105.38 63.6162C105.38 67.0528 102.358 68.5191 99.0343 68.5191C97.7064 68.6344 96.3738 68.3574 95.2079 67.7238C94.0421 67.0903 93.0962 66.1292 92.4922 64.9642L96.4507 62.7571C96.6114 63.2959 96.9554 63.7646 97.4253 64.0853C97.8954 64.4059 98.4631 64.5593 99.0343 64.5198C100.137 64.5198 100.681 64.1791 100.681 63.5866C100.681 61.9424 93.1267 62.8164 93.1267 57.6616C93.1267 54.4027 95.937 52.7585 99.1703 52.7585C100.363 52.7231 101.545 53.0009 102.591 53.5635C103.638 54.126 104.512 54.9529 105.123 55.958L101.15 58.0023C100.974 57.6111 100.686 57.2782 100.322 57.0442C99.9568 56.8101 99.5307 56.6849 99.0947 56.6838C98.3091 56.6838 97.8256 56.9802 97.8256 57.5282C97.8861 59.2316 105.38 58.0911 105.38 63.6162Z" fill="white"/>
<path d="M122.061 53.1586V68.0897H117.528V66.6974C117.001 67.3161 116.332 67.8036 115.575 68.1203C114.819 68.437 113.997 68.5736 113.176 68.5194C110.155 68.5194 107.48 66.3714 107.48 62.3277V53.1586H112.013V61.6759C111.973 62.0389 112.016 62.4059 112.139 62.7506C112.262 63.0952 112.462 63.4086 112.724 63.6682C112.985 63.9278 113.303 64.1269 113.653 64.2511C114.003 64.3755 114.377 64.4216 114.748 64.3867C116.41 64.3867 117.573 63.4386 117.573 61.3205V53.1586H122.061Z" fill="white"/>
<path d="M148.26 58.9354V68.0896H143.728V59.3206C143.728 57.8394 142.987 56.8616 141.537 56.8616C140.086 56.8616 139.15 57.9134 139.15 59.6761V68.0896H134.617V59.3206C134.617 57.8394 133.892 56.8616 132.426 56.8616C130.961 56.8616 130.054 57.9134 130.054 59.6761V68.0896H125.521V53.1586H130.054V54.5362C130.528 53.9277 131.149 53.445 131.862 53.1321C132.574 52.819 133.355 52.6855 134.133 52.7438C134.915 52.7065 135.694 52.8685 136.393 53.2136C137.092 53.5589 137.687 54.0758 138.122 54.7139C138.628 54.0467 139.298 53.5161 140.069 53.1716C140.841 52.8271 141.689 52.6798 142.534 52.7438C145.979 52.7438 148.26 55.2027 148.26 58.9354Z" fill="white"/>
<path d="M152.127 53.0698C153.996 53.0698 155.511 51.5841 155.511 49.7517C155.511 47.9192 153.996 46.4337 152.127 46.4337C150.258 46.4337 148.742 47.9192 148.742 49.7517C148.742 51.5841 150.258 53.0698 152.127 53.0698Z" fill="white"/>
<path d="M55.4313 34.9984C64.1846 34.9984 71.2804 28.0416 71.2804 19.4599C71.2804 10.8783 64.1846 3.92151 55.4313 3.92151C46.678 3.92151 39.582 10.8783 39.582 19.4599C39.582 28.0416 46.678 34.9984 55.4313 34.9984Z" fill="white"/>
<path d="M90.861 34.9984C99.6143 34.9984 106.71 28.0416 106.71 19.4599C106.71 10.8783 99.6143 3.92151 90.861 3.92151C82.1077 3.92151 75.0117 10.8783 75.0117 19.4599C75.0117 28.0416 82.1077 34.9984 90.861 34.9984Z" fill="white"/>
<path d="M35.8493 3.92151H4.16602V34.9835H35.8493V3.92151Z" fill="white"/>
</svg>
