<svg width="34" height="35" viewBox="0 0 34 35" fill="none" xmlns="http://www.w3.org/2000/svg">
<rect y="0.5" width="33.6249" height="33.6248" rx="16.8124" fill="#EDC531" fill-opacity="0.2"/>
<path d="M23.8727 20.0045L20.1922 18.3553L20.182 18.3506C19.991 18.2689 19.7825 18.2361 19.5756 18.2552C19.3687 18.2743 19.1698 18.3447 18.9969 18.46C18.9765 18.4734 18.957 18.4881 18.9383 18.5037L17.0367 20.1248C15.832 19.5397 14.5883 18.3053 14.0031 17.1162L15.6266 15.1858C15.6422 15.1662 15.657 15.1467 15.6711 15.1256C15.7839 14.9532 15.8524 14.7556 15.8704 14.5503C15.8884 14.345 15.8553 14.1385 15.7742 13.9491V13.9397L14.1203 10.253C14.0131 10.0055 13.8287 9.79938 13.5947 9.66534C13.3607 9.5313 13.0896 9.47653 12.8219 9.50922C11.7633 9.64852 10.7916 10.1684 10.0882 10.9718C9.38492 11.7752 8.99809 12.8071 9.00001 13.8748C9.00001 20.078 14.0469 25.1248 20.25 25.1248C21.3177 25.1268 22.3497 24.7399 23.1531 24.0366C23.9564 23.3333 24.4763 22.3616 24.6156 21.303C24.6484 21.0354 24.5937 20.7643 24.4598 20.5303C24.3259 20.2963 24.12 20.1119 23.8727 20.0045ZM20.25 23.8748C17.5987 23.8719 15.0569 22.8174 13.1821 20.9427C11.3074 19.068 10.2529 16.5261 10.25 13.8748C10.2471 13.1119 10.5219 12.3741 11.0232 11.799C11.5246 11.2239 12.2181 10.851 12.9742 10.7498C12.9739 10.753 12.9739 10.7561 12.9742 10.7592L14.6149 14.4311L13 16.3639C12.9836 16.3828 12.9687 16.4029 12.9555 16.4241C12.8379 16.6045 12.7689 16.8122 12.7553 17.0271C12.7416 17.242 12.7836 17.4568 12.8774 17.6506C13.5852 19.0983 15.0438 20.5459 16.507 21.253C16.7023 21.3458 16.9184 21.3864 17.134 21.3708C17.3497 21.3552 17.5576 21.2839 17.7375 21.1639C17.7576 21.1504 17.7769 21.1358 17.7953 21.1202L19.6945 19.4998L23.3664 21.1444H23.375C23.2751 21.9016 22.9027 22.5965 22.3275 23.0991C21.7524 23.6016 21.0138 23.8774 20.25 23.8748Z" fill="#EDC531"/>
</svg>
