<svg width="30" height="24" viewBox="0 0 30 24" fill="none" xmlns="http://www.w3.org/2000/svg">
<path d="M23.543 23.7217C22.3125 23.7217 21.2383 23.5166 20.3203 23.1064C19.4219 22.6768 18.6797 22.1104 18.0938 21.4072C17.5078 20.7041 17.0684 19.8838 16.7754 18.9463C16.4824 18.0088 16.3359 17.0127 16.3359 15.958C16.3359 13.8486 16.6484 11.9443 17.2734 10.2451C17.918 8.52637 18.748 7.0127 19.7637 5.7041C20.7793 4.37598 21.9023 3.24316 23.1328 2.30566C24.3828 1.34863 25.6133 0.586914 26.8242 0.0205078L27.6738 1.16309C25.9551 2.78418 24.5879 4.22949 23.5723 5.49902C22.5566 6.74902 22.0488 7.79395 22.0488 8.63379C22.0488 9.1416 22.2637 9.55176 22.6934 9.86426C23.123 10.1768 23.6504 10.46 24.2754 10.7139C24.8809 10.9482 25.5156 11.2119 26.1797 11.5049C26.8438 11.7979 27.4492 12.1885 27.9961 12.6768C28.5625 13.1455 29.0215 13.7412 29.373 14.4639C29.7441 15.1865 29.9297 16.1045 29.9297 17.2178C29.9297 17.8818 29.793 18.5947 29.5195 19.3564C29.2656 20.1182 28.8652 20.8213 28.3184 21.4658C27.791 22.1104 27.127 22.6475 26.3262 23.0771C25.5254 23.5068 24.5977 23.7217 23.543 23.7217ZM7.42969 23.7217C6.19922 23.7217 5.125 23.5166 4.20703 23.1064C3.30859 22.6768 2.56641 22.1104 1.98047 21.4072C1.39453 20.7041 0.955078 19.8838 0.662109 18.9463C0.369141 18.0088 0.222656 17.0127 0.222656 15.958C0.222656 13.8486 0.535156 11.9443 1.16016 10.2451C1.80469 8.52637 2.63477 7.0127 3.65039 5.7041C4.66602 4.37598 5.78906 3.24316 7.01953 2.30566C8.26953 1.34863 9.5 0.586914 10.7109 0.0205078L11.5605 1.16309C9.8418 2.78418 8.47461 4.22949 7.45898 5.49902C6.44336 6.74902 5.93555 7.79395 5.93555 8.63379C5.93555 9.1416 6.15039 9.55176 6.58008 9.86426C7.00977 10.1768 7.53711 10.46 8.16211 10.7139C8.76758 10.9482 9.40234 11.2119 10.0664 11.5049C10.7305 11.7979 11.3359 12.1885 11.8828 12.6768C12.4492 13.1455 12.9082 13.7412 13.2598 14.4639C13.6309 15.1865 13.8164 16.1045 13.8164 17.2178C13.8164 17.8818 13.6797 18.5947 13.4062 19.3564C13.1523 20.1182 12.752 20.8213 12.2051 21.4658C11.6777 22.1104 11.0137 22.6475 10.2129 23.0771C9.41211 23.5068 8.48438 23.7217 7.42969 23.7217Z" fill="#EDC531"/>
</svg>
