<svg width="24" height="25" viewBox="0 0 24 25" fill="none" xmlns="http://www.w3.org/2000/svg">
<path d="M20.3992 1.64844H3.59922C2.27922 1.64844 1.19922 2.72844 1.19922 4.04844V20.8484C1.19922 22.1696 2.27922 23.2484 3.59922 23.2484H11.9992V14.8484H9.59922V11.8784H11.9992V9.41844C11.9992 6.82164 13.4536 4.99764 16.5184 4.99764L18.682 5.00004V8.12604H17.2456C16.0528 8.12604 15.5992 9.02124 15.5992 9.85164V11.8796H18.6808L17.9992 14.8484H15.5992V23.2484H20.3992C21.7192 23.2484 22.7992 22.1696 22.7992 20.8484V4.04844C22.7992 2.72844 21.7192 1.64844 20.3992 1.64844Z" fill="#EDC531"/>
</svg>
