<svg width="24" height="25" viewBox="0 0 24 25" fill="none" xmlns="http://www.w3.org/2000/svg">
<g clip-path="url(#clip0_1137_785)">
<path d="M0 2.16724C0 1.21774 0.789 0.448242 1.7625 0.448242H22.2375C23.211 0.448242 24 1.21774 24 2.16724V22.7292C24 23.6787 23.211 24.4482 22.2375 24.4482H1.7625C0.789 24.4482 0 23.6787 0 22.7292V2.16724ZM7.4145 20.5392V9.70174H3.813V20.5392H7.4145ZM5.6145 8.22124C6.87 8.22124 7.6515 7.39024 7.6515 6.34924C7.629 5.28574 6.8715 4.47724 5.6385 4.47724C4.4055 4.47724 3.6 5.28724 3.6 6.34924C3.6 7.39024 4.3815 8.22124 5.5905 8.22124H5.6145ZM12.9765 20.5392V14.4867C12.9765 14.1627 13.0005 13.8387 13.0965 13.6077C13.356 12.9612 13.9485 12.2907 14.9445 12.2907C16.248 12.2907 16.7685 13.2837 16.7685 14.7417V20.5392H20.37V14.3232C20.37 10.9932 18.594 9.44524 16.224 9.44524C14.313 9.44524 13.4565 10.4952 12.9765 11.2347V11.2722H12.9525L12.9765 11.2347V9.70174H9.3765C9.4215 10.7187 9.3765 20.5392 9.3765 20.5392H12.9765Z" fill="#EDC531"/>
</g>
<defs>
<clipPath id="clip0_1137_785">
<rect width="24" height="24" fill="white" transform="translate(0 0.448242)"/>
</clipPath>
</defs>
</svg>
