<svg width="28" height="28" viewBox="0 0 28 28" fill="none" xmlns="http://www.w3.org/2000/svg">
<path d="M26.2967 7.49008C26.1581 6.93639 25.8758 6.42908 25.4784 6.01939C25.081 5.6097 24.5826 5.31213 24.0333 5.15675C22.0267 4.66675 14 4.66675 14 4.66675C14 4.66675 5.97335 4.66675 3.96668 5.20341C3.41747 5.3588 2.91899 5.65636 2.52159 6.06606C2.12418 6.47575 1.84194 6.98306 1.70335 7.53675C1.3361 9.57323 1.15646 11.6391 1.16668 13.7084C1.15359 15.7933 1.33324 17.8749 1.70335 19.9267C1.85614 20.4632 2.14471 20.9513 2.54118 21.3436C2.93766 21.736 3.42864 22.0195 3.96668 22.1667C5.97335 22.7034 14 22.7034 14 22.7034C14 22.7034 22.0267 22.7034 24.0333 22.1667C24.5826 22.0114 25.081 21.7138 25.4784 21.3041C25.8758 20.8944 26.1581 20.3871 26.2967 19.8334C26.6611 17.8123 26.8407 15.7621 26.8333 13.7084C26.8464 11.6235 26.6668 9.5419 26.2967 7.49008Z" stroke="#EDC531" stroke-width="2" stroke-linecap="round" stroke-linejoin="round"/>
<path d="M11.375 17.5233L18.0833 13.7083L11.375 9.89331V17.5233Z" stroke="#EDC531" stroke-width="2" stroke-linecap="round" stroke-linejoin="round"/>
</svg>
