<svg width="284" height="85" viewBox="0 0 284 85" fill="none" xmlns="http://www.w3.org/2000/svg">
<path d="M2 84.4246C3.10457 84.4246 4 83.5102 4 82.3822C4 81.2542 3.10457 80.3398 2 80.3398C0.89543 80.3398 0 81.2542 0 82.3822C0 83.5102 0.89543 84.4246 2 84.4246Z" fill="#6C62F3"/>
<path d="M2 64.3396C3.10457 64.3396 4 63.4252 4 62.2972C4 61.1693 3.10457 60.2549 2 60.2549C0.89543 60.2549 0 61.1693 0 62.2972C0 63.4252 0.89543 64.3396 2 64.3396Z" fill="#6C62F3"/>
<path d="M2 44.2547C3.10457 44.2547 4 43.3403 4 42.2123C4 41.0843 3.10457 40.1699 2 40.1699C0.89543 40.1699 0 41.0843 0 42.2123C0 43.3403 0.89543 44.2547 2 44.2547Z" fill="#6C62F3"/>
<path d="M2 24.1697C3.10457 24.1697 4 23.2553 4 22.1273C4 20.9994 3.10457 20.085 2 20.085C0.89543 20.085 0 20.9994 0 22.1273C0 23.2553 0.89543 24.1697 2 24.1697Z" fill="#6C62F3"/>
<path d="M2 4.08473C3.10457 4.08473 4 3.17033 4 2.04237C4 0.914398 3.10457 0 2 0C0.89543 0 0 0.914398 0 2.04237C0 3.17033 0.89543 4.08473 2 4.08473Z" fill="#6C62F3"/>
<path d="M22 84.4246C23.1046 84.4246 24 83.5102 24 82.3822C24 81.2542 23.1046 80.3398 22 80.3398C20.8954 80.3398 20 81.2542 20 82.3822C20 83.5102 20.8954 84.4246 22 84.4246Z" fill="#6C62F3"/>
<path d="M22 64.3396C23.1046 64.3396 24 63.4252 24 62.2972C24 61.1693 23.1046 60.2549 22 60.2549C20.8954 60.2549 20 61.1693 20 62.2972C20 63.4252 20.8954 64.3396 22 64.3396Z" fill="#6C62F3"/>
<path d="M22 44.2547C23.1046 44.2547 24 43.3403 24 42.2123C24 41.0843 23.1046 40.1699 22 40.1699C20.8954 40.1699 20 41.0843 20 42.2123C20 43.3403 20.8954 44.2547 22 44.2547Z" fill="#6C62F3"/>
<path d="M22 24.1697C23.1046 24.1697 24 23.2553 24 22.1273C24 20.9994 23.1046 20.085 22 20.085C20.8954 20.085 20 20.9994 20 22.1273C20 23.2553 20.8954 24.1697 22 24.1697Z" fill="#6C62F3"/>
<path d="M22 4.08473C23.1046 4.08473 24 3.17033 24 2.04237C24 0.914398 23.1046 0 22 0C20.8954 0 20 0.914398 20 2.04237C20 3.17033 20.8954 4.08473 22 4.08473Z" fill="#6C62F3"/>
<path d="M42 84.4246C43.1046 84.4246 44 83.5102 44 82.3822C44 81.2542 43.1046 80.3398 42 80.3398C40.8954 80.3398 40 81.2542 40 82.3822C40 83.5102 40.8954 84.4246 42 84.4246Z" fill="#6C62F3"/>
<path d="M42 64.3396C43.1046 64.3396 44 63.4252 44 62.2972C44 61.1693 43.1046 60.2549 42 60.2549C40.8954 60.2549 40 61.1693 40 62.2972C40 63.4252 40.8954 64.3396 42 64.3396Z" fill="#6C62F3"/>
<path d="M42 44.2547C43.1046 44.2547 44 43.3403 44 42.2123C44 41.0843 43.1046 40.1699 42 40.1699C40.8954 40.1699 40 41.0843 40 42.2123C40 43.3403 40.8954 44.2547 42 44.2547Z" fill="#6C62F3"/>
<path d="M42 24.1697C43.1046 24.1697 44 23.2553 44 22.1273C44 20.9994 43.1046 20.085 42 20.085C40.8954 20.085 40 20.9994 40 22.1273C40 23.2553 40.8954 24.1697 42 24.1697Z" fill="#6C62F3"/>
<path d="M42 4.08473C43.1046 4.08473 44 3.17033 44 2.04237C44 0.914398 43.1046 0 42 0C40.8954 0 40 0.914398 40 2.04237C40 3.17033 40.8954 4.08473 42 4.08473Z" fill="#6C62F3"/>
<path d="M62 84.4246C63.1046 84.4246 64 83.5102 64 82.3822C64 81.2542 63.1046 80.3398 62 80.3398C60.8954 80.3398 60 81.2542 60 82.3822C60 83.5102 60.8954 84.4246 62 84.4246Z" fill="#6C62F3"/>
<path d="M62 64.3396C63.1046 64.3396 64 63.4252 64 62.2972C64 61.1693 63.1046 60.2549 62 60.2549C60.8954 60.2549 60 61.1693 60 62.2972C60 63.4252 60.8954 64.3396 62 64.3396Z" fill="#6C62F3"/>
<path d="M62 44.2547C63.1046 44.2547 64 43.3403 64 42.2123C64 41.0843 63.1046 40.1699 62 40.1699C60.8954 40.1699 60 41.0843 60 42.2123C60 43.3403 60.8954 44.2547 62 44.2547Z" fill="#6C62F3"/>
<path d="M62 24.1697C63.1046 24.1697 64 23.2553 64 22.1273C64 20.9994 63.1046 20.085 62 20.085C60.8954 20.085 60 20.9994 60 22.1273C60 23.2553 60.8954 24.1697 62 24.1697Z" fill="#6C62F3"/>
<path d="M62 4.08473C63.1046 4.08473 64 3.17033 64 2.04237C64 0.914398 63.1046 0 62 0C60.8954 0 60 0.914398 60 2.04237C60 3.17033 60.8954 4.08473 62 4.08473Z" fill="#6C62F3"/>
<path d="M82 84.4246C83.1046 84.4246 84 83.5102 84 82.3822C84 81.2542 83.1046 80.3398 82 80.3398C80.8954 80.3398 80 81.2542 80 82.3822C80 83.5102 80.8954 84.4246 82 84.4246Z" fill="#6C62F3"/>
<path d="M82 64.3396C83.1046 64.3396 84 63.4252 84 62.2972C84 61.1693 83.1046 60.2549 82 60.2549C80.8954 60.2549 80 61.1693 80 62.2972C80 63.4252 80.8954 64.3396 82 64.3396Z" fill="#6C62F3"/>
<path d="M82 44.2547C83.1046 44.2547 84 43.3403 84 42.2123C84 41.0843 83.1046 40.1699 82 40.1699C80.8954 40.1699 80 41.0843 80 42.2123C80 43.3403 80.8954 44.2547 82 44.2547Z" fill="#6C62F3"/>
<path d="M82 24.1697C83.1046 24.1697 84 23.2553 84 22.1273C84 20.9994 83.1046 20.085 82 20.085C80.8954 20.085 80 20.9994 80 22.1273C80 23.2553 80.8954 24.1697 82 24.1697Z" fill="#6C62F3"/>
<path d="M82 4.08473C83.1046 4.08473 84 3.17033 84 2.04237C84 0.914398 83.1046 0 82 0C80.8954 0 80 0.914398 80 2.04237C80 3.17033 80.8954 4.08473 82 4.08473Z" fill="#6C62F3"/>
<path d="M102 84.4246C103.105 84.4246 104 83.5102 104 82.3822C104 81.2542 103.105 80.3398 102 80.3398C100.895 80.3398 100 81.2542 100 82.3822C100 83.5102 100.895 84.4246 102 84.4246Z" fill="#6C62F3"/>
<path d="M102 64.3396C103.105 64.3396 104 63.4252 104 62.2972C104 61.1693 103.105 60.2549 102 60.2549C100.895 60.2549 100 61.1693 100 62.2972C100 63.4252 100.895 64.3396 102 64.3396Z" fill="#6C62F3"/>
<path d="M102 44.2547C103.105 44.2547 104 43.3403 104 42.2123C104 41.0843 103.105 40.1699 102 40.1699C100.895 40.1699 100 41.0843 100 42.2123C100 43.3403 100.895 44.2547 102 44.2547Z" fill="#6C62F3"/>
<path d="M102 24.1697C103.105 24.1697 104 23.2553 104 22.1273C104 20.9994 103.105 20.085 102 20.085C100.895 20.085 100 20.9994 100 22.1273C100 23.2553 100.895 24.1697 102 24.1697Z" fill="#6C62F3"/>
<path d="M102 4.08473C103.105 4.08473 104 3.17033 104 2.04237C104 0.914398 103.105 0 102 0C100.895 0 100 0.914398 100 2.04237C100 3.17033 100.895 4.08473 102 4.08473Z" fill="#6C62F3"/>
<path d="M122 84.4246C123.105 84.4246 124 83.5102 124 82.3822C124 81.2542 123.105 80.3398 122 80.3398C120.895 80.3398 120 81.2542 120 82.3822C120 83.5102 120.895 84.4246 122 84.4246Z" fill="#6C62F3"/>
<path d="M122 64.3396C123.105 64.3396 124 63.4252 124 62.2972C124 61.1693 123.105 60.2549 122 60.2549C120.895 60.2549 120 61.1693 120 62.2972C120 63.4252 120.895 64.3396 122 64.3396Z" fill="#6C62F3"/>
<path d="M122 44.2547C123.105 44.2547 124 43.3403 124 42.2123C124 41.0843 123.105 40.1699 122 40.1699C120.895 40.1699 120 41.0843 120 42.2123C120 43.3403 120.895 44.2547 122 44.2547Z" fill="#6C62F3"/>
<path d="M122 24.1697C123.105 24.1697 124 23.2553 124 22.1273C124 20.9994 123.105 20.085 122 20.085C120.895 20.085 120 20.9994 120 22.1273C120 23.2553 120.895 24.1697 122 24.1697Z" fill="#6C62F3"/>
<path d="M122 4.08473C123.105 4.08473 124 3.17033 124 2.04237C124 0.914398 123.105 0 122 0C120.895 0 120 0.914398 120 2.04237C120 3.17033 120.895 4.08473 122 4.08473Z" fill="#6C62F3"/>
<path d="M142 84.4246C143.105 84.4246 144 83.5102 144 82.3822C144 81.2542 143.105 80.3398 142 80.3398C140.895 80.3398 140 81.2542 140 82.3822C140 83.5102 140.895 84.4246 142 84.4246Z" fill="#6C62F3"/>
<path d="M142 64.3396C143.105 64.3396 144 63.4252 144 62.2972C144 61.1693 143.105 60.2549 142 60.2549C140.895 60.2549 140 61.1693 140 62.2972C140 63.4252 140.895 64.3396 142 64.3396Z" fill="#6C62F3"/>
<path d="M142 44.2547C143.105 44.2547 144 43.3403 144 42.2123C144 41.0843 143.105 40.1699 142 40.1699C140.895 40.1699 140 41.0843 140 42.2123C140 43.3403 140.895 44.2547 142 44.2547Z" fill="#6C62F3"/>
<path d="M142 24.1697C143.105 24.1697 144 23.2553 144 22.1273C144 20.9994 143.105 20.085 142 20.085C140.895 20.085 140 20.9994 140 22.1273C140 23.2553 140.895 24.1697 142 24.1697Z" fill="#6C62F3"/>
<path d="M142 4.08473C143.105 4.08473 144 3.17033 144 2.04237C144 0.914398 143.105 0 142 0C140.895 0 140 0.914398 140 2.04237C140 3.17033 140.895 4.08473 142 4.08473Z" fill="#6C62F3"/>
<path d="M162 84.4246C163.105 84.4246 164 83.5102 164 82.3822C164 81.2542 163.105 80.3398 162 80.3398C160.895 80.3398 160 81.2542 160 82.3822C160 83.5102 160.895 84.4246 162 84.4246Z" fill="#6C62F3"/>
<path d="M162 64.3396C163.105 64.3396 164 63.4252 164 62.2972C164 61.1693 163.105 60.2549 162 60.2549C160.895 60.2549 160 61.1693 160 62.2972C160 63.4252 160.895 64.3396 162 64.3396Z" fill="#6C62F3"/>
<path d="M162 44.2547C163.105 44.2547 164 43.3403 164 42.2123C164 41.0843 163.105 40.1699 162 40.1699C160.895 40.1699 160 41.0843 160 42.2123C160 43.3403 160.895 44.2547 162 44.2547Z" fill="#6C62F3"/>
<path d="M162 24.1697C163.105 24.1697 164 23.2553 164 22.1273C164 20.9994 163.105 20.085 162 20.085C160.895 20.085 160 20.9994 160 22.1273C160 23.2553 160.895 24.1697 162 24.1697Z" fill="#6C62F3"/>
<path d="M162 4.08473C163.105 4.08473 164 3.17033 164 2.04237C164 0.914398 163.105 0 162 0C160.895 0 160 0.914398 160 2.04237C160 3.17033 160.895 4.08473 162 4.08473Z" fill="#6C62F3"/>
<path d="M182 84.4246C183.105 84.4246 184 83.5102 184 82.3822C184 81.2542 183.105 80.3398 182 80.3398C180.895 80.3398 180 81.2542 180 82.3822C180 83.5102 180.895 84.4246 182 84.4246Z" fill="#6C62F3"/>
<path d="M182 64.3396C183.105 64.3396 184 63.4252 184 62.2972C184 61.1693 183.105 60.2549 182 60.2549C180.895 60.2549 180 61.1693 180 62.2972C180 63.4252 180.895 64.3396 182 64.3396Z" fill="#6C62F3"/>
<path d="M182 44.2547C183.105 44.2547 184 43.3403 184 42.2123C184 41.0843 183.105 40.1699 182 40.1699C180.895 40.1699 180 41.0843 180 42.2123C180 43.3403 180.895 44.2547 182 44.2547Z" fill="#6C62F3"/>
<path d="M182 24.1697C183.105 24.1697 184 23.2553 184 22.1273C184 20.9994 183.105 20.085 182 20.085C180.895 20.085 180 20.9994 180 22.1273C180 23.2553 180.895 24.1697 182 24.1697Z" fill="#6C62F3"/>
<path d="M182 4.08473C183.105 4.08473 184 3.17033 184 2.04237C184 0.914398 183.105 0 182 0C180.895 0 180 0.914398 180 2.04237C180 3.17033 180.895 4.08473 182 4.08473Z" fill="#6C62F3"/>
<path d="M202 84.4246C203.105 84.4246 204 83.5102 204 82.3822C204 81.2542 203.105 80.3398 202 80.3398C200.895 80.3398 200 81.2542 200 82.3822C200 83.5102 200.895 84.4246 202 84.4246Z" fill="#6C62F3"/>
<path d="M202 64.3396C203.105 64.3396 204 63.4252 204 62.2972C204 61.1693 203.105 60.2549 202 60.2549C200.895 60.2549 200 61.1693 200 62.2972C200 63.4252 200.895 64.3396 202 64.3396Z" fill="#6C62F3"/>
<path d="M202 44.2547C203.105 44.2547 204 43.3403 204 42.2123C204 41.0843 203.105 40.1699 202 40.1699C200.895 40.1699 200 41.0843 200 42.2123C200 43.3403 200.895 44.2547 202 44.2547Z" fill="#6C62F3"/>
<path d="M202 24.1697C203.105 24.1697 204 23.2553 204 22.1273C204 20.9994 203.105 20.085 202 20.085C200.895 20.085 200 20.9994 200 22.1273C200 23.2553 200.895 24.1697 202 24.1697Z" fill="#6C62F3"/>
<path d="M202 4.08473C203.105 4.08473 204 3.17033 204 2.04237C204 0.914398 203.105 0 202 0C200.895 0 200 0.914398 200 2.04237C200 3.17033 200.895 4.08473 202 4.08473Z" fill="#6C62F3"/>
<path d="M222 84.4246C223.105 84.4246 224 83.5102 224 82.3822C224 81.2542 223.105 80.3398 222 80.3398C220.895 80.3398 220 81.2542 220 82.3822C220 83.5102 220.895 84.4246 222 84.4246Z" fill="#6C62F3"/>
<path d="M222 64.3396C223.105 64.3396 224 63.4252 224 62.2972C224 61.1693 223.105 60.2549 222 60.2549C220.895 60.2549 220 61.1693 220 62.2972C220 63.4252 220.895 64.3396 222 64.3396Z" fill="#6C62F3"/>
<path d="M222 44.2547C223.105 44.2547 224 43.3403 224 42.2123C224 41.0843 223.105 40.1699 222 40.1699C220.895 40.1699 220 41.0843 220 42.2123C220 43.3403 220.895 44.2547 222 44.2547Z" fill="#6C62F3"/>
<path d="M222 24.1697C223.105 24.1697 224 23.2553 224 22.1273C224 20.9994 223.105 20.085 222 20.085C220.895 20.085 220 20.9994 220 22.1273C220 23.2553 220.895 24.1697 222 24.1697Z" fill="#6C62F3"/>
<path d="M222 4.08473C223.105 4.08473 224 3.17033 224 2.04237C224 0.914398 223.105 0 222 0C220.895 0 220 0.914398 220 2.04237C220 3.17033 220.895 4.08473 222 4.08473Z" fill="#6C62F3"/>
<path d="M242 84.4246C243.105 84.4246 244 83.5102 244 82.3822C244 81.2542 243.105 80.3398 242 80.3398C240.895 80.3398 240 81.2542 240 82.3822C240 83.5102 240.895 84.4246 242 84.4246Z" fill="#6C62F3"/>
<path d="M242 64.3396C243.105 64.3396 244 63.4252 244 62.2972C244 61.1693 243.105 60.2549 242 60.2549C240.895 60.2549 240 61.1693 240 62.2972C240 63.4252 240.895 64.3396 242 64.3396Z" fill="#6C62F3"/>
<path d="M242 44.2547C243.105 44.2547 244 43.3403 244 42.2123C244 41.0843 243.105 40.1699 242 40.1699C240.895 40.1699 240 41.0843 240 42.2123C240 43.3403 240.895 44.2547 242 44.2547Z" fill="#6C62F3"/>
<path d="M242 24.1697C243.105 24.1697 244 23.2553 244 22.1273C244 20.9994 243.105 20.085 242 20.085C240.895 20.085 240 20.9994 240 22.1273C240 23.2553 240.895 24.1697 242 24.1697Z" fill="#6C62F3"/>
<path d="M242 4.08473C243.105 4.08473 244 3.17033 244 2.04237C244 0.914398 243.105 0 242 0C240.895 0 240 0.914398 240 2.04237C240 3.17033 240.895 4.08473 242 4.08473Z" fill="#6C62F3"/>
<path d="M262 84.4246C263.105 84.4246 264 83.5102 264 82.3822C264 81.2542 263.105 80.3398 262 80.3398C260.895 80.3398 260 81.2542 260 82.3822C260 83.5102 260.895 84.4246 262 84.4246Z" fill="#6C62F3"/>
<path d="M262 64.3396C263.105 64.3396 264 63.4252 264 62.2972C264 61.1693 263.105 60.2549 262 60.2549C260.895 60.2549 260 61.1693 260 62.2972C260 63.4252 260.895 64.3396 262 64.3396Z" fill="#6C62F3"/>
<path d="M262 44.2547C263.105 44.2547 264 43.3403 264 42.2123C264 41.0843 263.105 40.1699 262 40.1699C260.895 40.1699 260 41.0843 260 42.2123C260 43.3403 260.895 44.2547 262 44.2547Z" fill="#6C62F3"/>
<path d="M262 24.1697C263.105 24.1697 264 23.2553 264 22.1273C264 20.9994 263.105 20.085 262 20.085C260.895 20.085 260 20.9994 260 22.1273C260 23.2553 260.895 24.1697 262 24.1697Z" fill="#6C62F3"/>
<path d="M262 4.08473C263.105 4.08473 264 3.17033 264 2.04237C264 0.914398 263.105 0 262 0C260.895 0 260 0.914398 260 2.04237C260 3.17033 260.895 4.08473 262 4.08473Z" fill="#6C62F3"/>
<path d="M282 84.4246C283.105 84.4246 284 83.5102 284 82.3822C284 81.2542 283.105 80.3398 282 80.3398C280.895 80.3398 280 81.2542 280 82.3822C280 83.5102 280.895 84.4246 282 84.4246Z" fill="#6C62F3"/>
<path d="M282 64.3396C283.105 64.3396 284 63.4252 284 62.2972C284 61.1693 283.105 60.2549 282 60.2549C280.895 60.2549 280 61.1693 280 62.2972C280 63.4252 280.895 64.3396 282 64.3396Z" fill="#6C62F3"/>
<path d="M282 44.2547C283.105 44.2547 284 43.3403 284 42.2123C284 41.0843 283.105 40.1699 282 40.1699C280.895 40.1699 280 41.0843 280 42.2123C280 43.3403 280.895 44.2547 282 44.2547Z" fill="#6C62F3"/>
<path d="M282 24.1697C283.105 24.1697 284 23.2553 284 22.1273C284 20.9994 283.105 20.085 282 20.085C280.895 20.085 280 20.9994 280 22.1273C280 23.2553 280.895 24.1697 282 24.1697Z" fill="#6C62F3"/>
<path d="M282 4.08473C283.105 4.08473 284 3.17033 284 2.04237C284 0.914398 283.105 0 282 0C280.895 0 280 0.914398 280 2.04237C280 3.17033 280.895 4.08473 282 4.08473Z" fill="#6C62F3"/>
</svg>
